<svg 
                xmlns="http://www.w3.org/2000/svg"
                xmlns:xlink="http://www.w3.org/1999/xlink"
                viewBox="0 0 1567 302" 
                preserveAspectRatio="xMinYMin meet">
                <path fill-rule="nonzero"  fill="rgb(255, 255, 255)"
                d="M1565.284,168.468 C1552.084,180.768 1523.883,202.368 1505.883,202.368 C1494.183,202.368 1489.083,194.868 1489.083,185.268 C1489.083,182.657 1489.472,179.865 1490.172,177.014 C1473.745,193.130 1439.763,222.769 1427.884,222.769 C1418.884,222.769 1416.784,212.268 1416.784,202.968 C1416.784,194.422 1418.110,184.744 1420.362,174.540 C1405.161,189.860 1368.103,222.769 1355.585,222.769 C1346.584,222.769 1344.484,212.268 1344.484,202.968 C1344.484,193.575 1346.087,182.816 1348.759,171.493 C1337.384,178.441 1312.494,189.768 1299.786,189.768 C1289.586,189.768 1282.386,181.368 1282.386,169.668 C1282.386,168.168 1282.386,166.668 1282.686,165.168 C1282.686,164.868 1282.386,164.568 1282.086,164.568 L1281.786,164.568 C1272.186,173.268 1253.586,189.768 1241.885,189.768 C1236.785,189.768 1232.285,187.068 1232.285,181.068 C1232.285,179.109 1232.691,177.044 1233.459,174.948 C1224.945,179.247 1213.700,183.468 1206.487,183.468 C1187.886,183.468 1178.886,167.868 1176.786,167.868 C1169.886,167.868 1152.486,183.468 1143.486,183.468 C1137.786,183.468 1132.386,178.968 1132.386,168.168 C1132.386,163.068 1133.286,157.968 1133.886,154.068 C1133.886,153.468 1133.586,153.168 1132.986,153.168 C1132.686,153.168 1132.386,153.168 1132.086,153.468 C1111.086,172.068 1092.486,193.368 1077.185,216.769 C1076.585,217.969 1075.685,218.269 1074.785,218.269 L1074.185,218.269 C1072.985,218.269 1071.785,217.369 1071.785,215.869 C1071.485,215.869 1071.485,215.569 1071.485,215.569 C1071.485,214.969 1071.785,214.669 1071.785,214.369 C1073.941,198.310 1077.103,183.684 1080.493,171.534 C1069.088,178.485 1044.270,189.768 1031.587,189.768 C1021.387,189.768 1014.187,181.368 1014.187,169.668 C1014.187,168.168 1014.187,166.668 1014.487,165.168 C1014.487,164.868 1014.187,164.568 1013.887,164.568 L1013.587,164.568 C1003.986,173.268 985.386,189.768 973.686,189.768 C968.586,189.768 964.086,187.068 964.086,181.068 C964.086,179.727 964.278,178.336 964.644,176.919 C959.244,180.012 952.798,182.568 946.990,182.568 C937.089,182.568 926.589,176.268 922.989,166.068 C908.889,182.568 896.289,200.568 885.489,219.769 C884.889,220.669 883.989,221.269 883.089,221.269 C881.589,221.269 879.789,220.369 879.789,218.269 C879.789,217.559 886.813,192.423 894.044,171.988 C882.332,178.964 858.301,189.768 845.890,189.768 C835.690,189.768 828.490,181.368 828.490,169.668 C828.490,168.168 828.490,166.668 828.790,165.168 C828.790,164.868 828.490,164.568 828.190,164.568 L827.890,164.568 C818.290,173.268 799.690,189.768 787.990,189.768 C782.890,189.768 778.390,187.068 778.390,181.068 C778.390,178.586 779.037,175.933 780.254,173.263 C757.062,185.001 698.467,207.768 637.695,207.768 C605.894,207.768 578.894,202.068 559.094,194.568 C558.794,194.268 558.194,194.268 557.894,194.268 C556.994,194.268 556.094,194.868 555.794,196.068 C545.594,223.969 535.994,254.569 527.894,287.269 C527.594,288.469 526.394,289.069 525.194,289.069 C523.694,289.069 522.194,288.169 522.194,286.369 C522.194,283.069 530.894,245.869 550.694,192.468 L550.694,191.868 C550.694,191.568 550.394,191.268 550.094,190.968 C532.994,183.168 523.394,174.768 523.394,169.368 C523.394,160.668 532.694,160.668 568.394,144.768 C569.594,144.168 570.494,143.268 571.094,141.768 C589.094,100.367 612.494,54.167 641.895,8.266 C642.495,7.366 643.395,7.066 644.295,7.066 C645.795,7.066 647.295,8.266 647.295,9.766 C647.295,9.766 613.994,58.667 579.494,137.268 C579.494,137.568 579.194,137.568 579.194,137.868 C579.194,138.468 579.794,139.068 580.394,139.068 C580.694,139.068 580.694,138.768 580.994,138.768 C583.094,137.868 585.194,136.668 587.594,135.768 C656.895,101.867 717.196,57.167 767.596,5.866 C768.196,5.266 769.096,4.966 769.696,4.966 C771.196,4.966 772.696,6.466 772.696,7.966 C772.696,10.666 695.895,91.667 576.494,147.468 C575.294,148.068 574.394,148.968 573.794,150.168 C568.694,161.868 563.894,174.168 559.094,186.768 L559.094,187.368 C559.094,187.968 559.394,188.268 559.994,188.568 C577.094,195.468 602.594,202.068 637.695,202.068 C712.248,202.068 780.043,167.527 786.829,163.968 C794.523,156.126 806.908,149.868 821.590,149.868 C827.590,149.868 832.690,150.768 833.290,151.068 C834.190,150.168 834.790,149.568 836.290,149.568 C836.890,149.568 837.790,149.868 838.390,150.468 C838.990,151.068 839.290,151.668 839.290,152.568 C839.290,152.868 838.990,153.468 838.690,154.068 C836.290,158.568 834.190,164.268 834.190,169.668 C834.190,177.468 838.090,184.068 846.190,184.068 C860.405,184.068 890.439,167.767 896.864,164.309 C900.889,153.801 904.699,145.968 907.089,145.968 C908.589,145.968 910.389,147.468 910.389,149.268 C910.389,149.268 901.089,167.268 892.389,195.468 C892.389,195.768 892.689,196.068 892.989,196.068 C892.989,196.068 893.289,196.068 893.289,195.768 C895.989,191.868 919.389,157.668 924.489,157.668 C925.989,157.668 927.489,158.568 927.789,160.668 C928.689,169.968 938.289,176.868 947.290,176.868 C955.090,176.868 966.190,169.668 971.590,164.568 C971.870,164.287 972.217,164.075 972.568,163.926 C980.265,156.104 992.631,149.868 1007.287,149.868 C1013.287,149.868 1018.387,150.768 1018.987,151.068 C1019.887,150.168 1020.487,149.568 1021.987,149.568 C1022.587,149.568 1023.487,149.868 1024.087,150.468 C1024.687,151.068 1024.987,151.668 1024.987,152.568 C1024.987,152.868 1024.687,153.468 1024.387,154.068 C1021.987,158.568 1019.887,164.268 1019.887,169.668 C1019.887,177.468 1023.787,184.068 1031.887,184.068 C1046.159,184.068 1076.380,167.634 1082.636,164.269 C1088.072,146.829 1093.669,136.068 1096.386,136.068 C1097.886,136.068 1099.386,137.268 1099.386,139.068 C1099.386,139.068 1086.485,160.668 1079.885,200.268 L1079.885,200.568 C1079.885,200.868 1080.185,201.168 1080.785,201.168 C1080.785,201.168 1081.085,201.168 1081.085,200.868 C1104.186,169.068 1133.586,142.668 1136.886,142.668 C1139.886,142.668 1139.886,146.268 1139.886,149.268 C1139.886,154.068 1138.086,162.768 1138.086,168.468 C1138.086,172.368 1139.286,177.468 1143.486,177.468 C1150.086,177.468 1169.586,162.168 1176.786,162.168 C1186.086,162.168 1186.686,177.468 1206.187,177.468 C1217.037,177.468 1231.037,170.016 1240.348,164.357 C1248.012,156.334 1260.562,149.868 1275.486,149.868 C1281.486,149.868 1286.586,150.768 1287.186,151.068 C1288.086,150.168 1288.686,149.568 1290.186,149.568 C1290.786,149.568 1291.686,149.868 1292.286,150.468 C1292.886,151.068 1293.186,151.668 1293.186,152.568 C1293.186,152.868 1292.886,153.468 1292.586,154.068 C1290.186,158.568 1288.086,164.268 1288.086,169.668 C1288.086,177.468 1291.986,184.068 1300.086,184.068 C1314.147,184.068 1343.689,168.117 1350.542,164.426 C1363.890,114.663 1395.153,57.467 1401.485,57.467 C1402.985,57.467 1404.485,58.967 1404.485,60.767 C1404.485,61.367 1404.185,61.967 1403.885,62.567 C1374.785,98.867 1350.485,173.568 1350.485,203.268 C1350.485,207.768 1351.085,217.069 1355.585,217.069 C1368.825,217.069 1415.661,170.247 1422.812,164.539 C1436.142,114.750 1467.448,57.467 1473.784,57.467 C1475.284,57.467 1476.784,58.967 1476.784,60.767 C1476.784,61.367 1476.484,61.967 1476.184,62.567 C1447.084,98.867 1422.784,173.568 1422.784,203.268 C1422.784,207.768 1423.384,217.069 1427.884,217.069 C1441.116,217.069 1487.900,170.307 1495.098,164.549 C1496.963,161.131 1499.186,157.865 1501.683,154.968 C1502.283,154.368 1502.883,154.068 1503.483,154.068 C1504.983,154.068 1506.483,155.568 1506.483,157.068 C1506.483,157.968 1506.183,158.568 1505.583,159.168 C1499.583,166.068 1495.083,176.868 1495.083,184.968 C1495.083,191.568 1498.083,196.368 1505.583,196.368 C1522.083,196.368 1548.784,175.668 1561.084,164.568 C1561.684,163.968 1562.584,163.668 1563.184,163.668 C1564.684,163.668 1566.184,165.168 1566.184,166.668 C1566.184,167.268 1565.884,167.868 1565.284,168.468 ZM565.694,154.668 C565.694,154.368 565.994,154.368 565.994,154.068 C565.994,153.168 565.094,152.868 564.494,152.868 L563.894,152.868 C541.994,162.468 529.094,166.068 529.094,169.368 C529.094,172.668 544.394,181.068 550.994,184.368 C551.294,184.668 551.894,184.668 552.194,184.668 C553.094,184.668 553.994,184.068 554.294,183.168 C557.894,174.168 561.494,164.568 565.694,154.668 ZM826.390,155.868 C824.890,155.568 823.390,155.568 821.590,155.568 C799.090,155.568 784.090,172.368 784.090,180.468 C784.090,183.468 785.290,184.068 787.690,184.068 C796.390,184.068 815.890,167.868 826.990,157.368 C827.290,157.368 827.290,157.068 827.290,156.768 C827.290,156.468 826.990,155.868 826.390,155.868 ZM1012.087,155.868 C1010.587,155.568 1009.087,155.568 1007.287,155.568 C984.786,155.568 969.786,172.368 969.786,180.468 C969.786,183.468 970.986,184.068 973.386,184.068 C982.086,184.068 1001.586,167.868 1012.687,157.368 C1012.987,157.368 1012.987,157.068 1012.987,156.768 C1012.987,156.468 1012.687,155.868 1012.087,155.868 ZM1280.286,155.868 C1278.786,155.568 1277.286,155.568 1275.486,155.568 C1252.986,155.568 1237.985,172.368 1237.985,180.468 C1237.985,183.468 1239.185,184.068 1241.585,184.068 C1250.286,184.068 1269.786,167.868 1280.886,157.368 C1281.186,157.368 1281.186,157.068 1281.186,156.768 C1281.186,156.468 1280.886,155.868 1280.286,155.868 ZM369.198,205.968 C368.898,205.968 368.298,205.668 367.698,205.368 L367.398,205.068 C360.497,216.769 354.197,228.769 347.897,240.769 C347.597,242.269 346.397,242.869 345.497,242.869 C343.697,242.869 342.197,241.369 342.197,239.569 C342.197,231.224 349.740,205.280 360.267,176.012 C351.832,183.849 338.983,193.668 331.401,193.668 C324.201,193.668 321.501,186.768 321.501,179.568 C321.501,178.068 321.801,176.568 321.801,175.068 L321.801,174.768 C321.801,174.468 321.801,174.468 321.501,174.468 L320.901,174.468 C313.400,182.868 300.800,194.868 290.000,194.868 C282.800,194.868 279.500,190.068 279.500,182.868 C279.500,181.739 279.613,180.481 279.818,179.141 C268.449,190.506 247.564,206.662 220.401,216.169 C218.601,216.769 217.101,218.269 216.801,220.069 C216.801,220.669 216.501,221.269 216.501,221.569 L216.501,222.469 C216.501,223.969 217.101,225.469 218.001,226.069 C228.501,234.769 232.701,247.069 232.701,260.869 C232.701,274.669 226.401,301.369 215.601,301.369 C206.001,301.369 204.501,285.169 204.501,275.869 C204.501,261.169 206.601,244.969 209.001,230.269 L209.001,229.669 C209.001,228.169 208.101,226.669 206.901,226.069 C197.601,221.569 193.101,223.669 193.101,219.769 L193.101,219.169 C193.101,215.869 195.201,217.369 208.701,213.468 C210.801,212.869 212.601,211.068 213.201,208.668 C220.101,176.268 231.801,136.368 245.301,107.567 C244.701,106.967 244.101,106.067 244.101,105.467 C244.101,103.367 245.601,103.067 248.601,100.667 C250.401,97.067 261.201,76.967 265.401,76.967 C266.901,76.967 268.401,78.467 268.401,79.967 C268.401,81.467 265.101,94.667 253.101,104.567 C239.001,133.368 226.701,174.468 219.501,206.868 L219.501,207.168 C219.501,208.368 220.401,209.268 221.601,209.268 L222.201,209.268 C246.145,200.105 268.045,185.112 283.893,165.446 C286.478,159.322 289.650,154.368 291.800,154.368 C293.300,154.368 294.800,155.568 294.800,157.068 C294.800,157.668 294.800,158.268 294.500,158.568 C287.300,169.368 285.200,178.068 285.200,183.768 C285.200,187.068 286.400,189.168 289.700,189.168 C302.300,189.168 321.501,166.068 328.701,155.868 C329.301,154.968 330.201,154.668 331.101,154.668 C332.001,154.668 332.901,154.968 333.501,155.268 C334.101,155.868 334.401,156.468 334.401,157.368 C334.401,157.668 334.101,158.268 333.801,158.868 C329.901,164.568 327.501,172.068 327.501,179.568 C327.501,182.268 327.801,187.668 331.401,187.668 C341.036,187.668 359.763,167.462 364.637,164.133 C371.697,145.359 379.692,126.027 387.498,109.667 C400.098,83.567 414.198,58.067 430.698,34.367 C431.598,33.467 432.498,33.167 433.398,33.167 C434.898,33.167 436.398,34.367 436.398,35.867 C436.398,36.467 436.398,37.067 435.798,37.367 C426.798,50.267 418.698,63.467 411.198,76.967 C396.498,103.067 383.598,130.668 372.798,158.568 C365.597,177.168 358.997,196.068 353.897,215.569 C353.897,215.869 354.197,215.869 354.197,215.869 C354.497,215.869 354.497,215.869 354.497,215.569 C363.197,199.968 388.398,154.068 400.998,154.068 C403.398,154.068 406.098,155.868 406.098,159.768 C406.098,167.568 395.898,183.768 380.298,197.868 C379.998,197.868 379.998,198.168 379.998,198.168 C379.998,198.768 380.298,199.068 380.598,199.068 L380.898,199.068 C405.798,195.468 427.398,181.668 445.698,164.568 C446.298,163.968 446.898,163.668 447.498,163.668 C449.298,163.668 450.798,165.168 450.798,166.668 C450.798,167.268 450.498,167.868 449.898,168.468 C427.698,189.168 400.098,205.968 369.198,205.968 ZM207.801,219.769 C208.701,220.369 209.601,220.669 210.501,221.269 C210.801,220.369 210.801,219.769 211.101,218.869 C209.901,219.169 208.701,219.469 207.801,219.769 ZM210.201,275.869 C210.201,280.969 210.801,291.469 214.401,294.769 C215.001,295.069 215.001,295.369 215.601,295.369 L215.901,295.369 C215.901,295.069 216.201,295.069 216.201,295.069 C218.301,295.069 227.001,279.469 227.001,260.569 C227.001,249.169 223.701,238.369 214.701,231.169 C212.301,245.269 210.201,261.169 210.201,275.869 ZM400.098,160.668 L400.098,160.368 C393.798,162.168 379.098,185.268 373.398,194.568 L373.398,194.868 C373.398,195.168 373.698,195.168 373.998,195.168 L374.298,195.168 C388.098,183.168 400.098,166.368 400.098,160.668 ZM164.605,262.369 C163.105,262.369 161.305,261.169 161.305,259.069 C161.305,222.169 201.205,109.967 226.105,43.367 L226.105,43.067 C226.105,42.467 225.805,42.167 225.205,42.167 C224.905,42.167 224.905,42.167 224.605,42.467 C175.705,123.168 75.204,280.069 28.703,280.069 C6.803,280.069 0.503,257.869 0.503,235.969 C0.503,191.268 31.103,102.167 78.804,43.367 C79.404,42.767 80.004,42.467 80.604,42.467 C82.104,42.467 83.604,43.967 83.604,45.467 C83.604,46.067 6.803,145.968 6.803,236.869 C6.803,254.869 10.703,274.069 29.003,274.069 C83.904,274.069 242.006,2.866 244.406,0.466 C244.706,0.166 245.006,0.166 245.306,0.166 C246.206,0.166 247.706,1.966 247.706,3.166 C220.705,67.967 180.205,181.968 167.005,260.269 C166.705,261.769 165.805,262.369 164.605,262.369 Z"/>
                </svg>